<svg width="40" height="25" viewBox="0 0 40 25" fill="none" xmlns="http://www.w3.org/2000/svg">
<path d="M5.27273 11C8.15909 11 10.5 8.65909 10.5 5.77273C10.5 2.88636 8.15909 0.545454 5.27273 0.545454C2.38636 0.545454 0.0454545 2.88636 0.0454545 5.77273C0.0454545 8.65909 2.38636 11 5.27273 11ZM5.27273 8.72727C3.63636 8.72727 2.31818 7.40909 2.31818 5.77273C2.31818 4.13636 3.63636 2.81818 5.27273 2.81818C6.90909 2.81818 8.22727 4.13636 8.22727 5.77273C8.22727 7.40909 6.90909 8.72727 5.27273 8.72727ZM39.8767 8C39.0131 3.22727 35.1949 0.40909 30.5131 0.40909C24.5585 0.40909 20.2403 5 20.2403 12.3636C20.2403 19.7273 24.5585 24.3182 30.5131 24.3182C35.1949 24.3182 39.0131 21.5 39.8767 16.7273H37.0585C36.3767 19.9545 33.604 21.6818 30.5131 21.6818C26.2858 21.6818 22.9676 18.4091 22.9676 12.3636C22.9676 6.31818 26.2858 3.04545 30.5131 3.04545C33.604 3.04545 36.3767 4.77273 37.0585 8L39.8767 8Z" fill="white"/>
</svg>
